<?xml version="1.0" standalone="no"?>
<!DOCTYPE svg PUBLIC "-//W3C//DTD SVG 20010904//EN"
 "http://www.w3.org/TR/2001/REC-SVG-20010904/DTD/svg10.dtd">
<svg version="1.0" xmlns="http://www.w3.org/2000/svg"
 width="201.000000pt" height="198.000000pt" viewBox="0 0 201.000000 198.000000"
 preserveAspectRatio="xMidYMid meet">

<g transform="translate(0.000000,198.000000) scale(0.100000,-0.100000)"
fill="#B32351" stroke="none">
<path d="M0 985 l0 -985 625 0 625 0 0 134 0 135 52 3 52 3 43 100 c24 55 54
125 67 155 89 208 397 905 404 912 5 5 37 -14 72 -42 34 -27 64 -50 65 -50 2
0 -31 72 -73 160 -42 88 -79 160 -83 160 -4 0 -80 -36 -170 -79 l-164 -80 88
0 c48 -1 87 -3 87 -6 0 -10 -357 -829 -406 -932 -33 -69 -34 -76 -34 -187 l0
-116 -50 0 -51 0 -20 48 c-111 260 -423 962 -428 962 -3 0 -31 -60 -62 -133
-31 -72 -130 -300 -219 -504 l-163 -373 -103 0 c-57 0 -104 1 -104 3 0 1 123
283 273 627 l273 625 105 3 104 3 219 -501 c120 -275 220 -500 222 -500 2 0 4
324 4 720 l0 720 -625 0 -625 0 0 -985z"/>
</g>
</svg>
