<svg
  width="117"
  height="50"
  viewBox="0 0 117 50"
  fill="none"
  xmlns="http://www.w3.org/2000/svg"
>
  <path
    d="M19.2182 10.9847L18.4862 4.95068C17.6742 5.04468 16.5672 5.28068 15.7622 5.53068L17.5502 11.3377C18.0882 11.1737 18.6482 11.0557 19.2182 10.9847Z"
    fill="#00B6B8"></path>
  <path
    d="M5.64613 14.6416C5.32113 15.3926 4.97213 16.4696 4.78613 17.2906L10.7101 18.6456C10.8391 18.0906 11.0161 17.5446 11.2361 17.0236L5.64613 14.6416Z"
    fill="#00B6B8"></path>
  <path
    d="M9.48414 32.6765L13.6201 28.2225C13.2011 27.8305 12.8171 27.4055 12.4771 26.9575L7.61914 30.6075C8.10614 31.2625 8.86414 32.1035 9.48414 32.6765Z"
    fill="#00B6B8"></path>
  <path
    d="M21.7002 30.8457L22.4322 36.8807C23.2452 36.7867 24.3522 36.5507 25.1562 36.3007L23.3682 30.4937C22.8302 30.6567 22.2702 30.7747 21.7002 30.8457Z"
    fill="#00B6B8"></path>
  <path
    d="M35.2721 27.1886C35.5971 26.4376 35.9461 25.3606 36.1321 24.5396L30.2091 23.1846C30.0801 23.7406 29.9021 24.2856 29.6821 24.8066L35.2721 27.1886Z"
    fill="#00B6B8"></path>
  <path
    d="M31.4353 9.15479L27.2993 13.6088C27.7183 14.0008 28.1023 14.4258 28.4423 14.8738L33.3003 11.2248C32.8103 10.5668 32.0533 9.72579 31.4353 9.15479Z"
    fill="#00B6B8"></path>
  <path
    d="M19.2182 10.9847L18.4862 4.95068C17.6742 5.04468 16.5672 5.28068 15.7622 5.53068L17.5502 11.3377C18.0882 11.1737 18.6482 11.0557 19.2182 10.9847Z"
    fill="#00BABA"></path>
  <path
    d="M5.64613 14.6416C5.32113 15.3926 4.97213 16.4696 4.78613 17.2906L10.7101 18.6456C10.8391 18.0906 11.0161 17.5446 11.2361 17.0236L5.64613 14.6416Z"
    fill="#00BABA"></path>
  <path
    d="M9.48414 32.6765L13.6201 28.2225C13.2011 27.8305 12.8171 27.4055 12.4771 26.9575L7.61914 30.6075C8.10614 31.2625 8.86414 32.1035 9.48414 32.6765Z"
    fill="#00BABA"></path>
  <path
    d="M21.7002 30.8457L22.4322 36.8807C23.2452 36.7867 24.3522 36.5507 25.1562 36.3007L23.3682 30.4937C22.8302 30.6567 22.2702 30.7747 21.7002 30.8457Z"
    fill="#00BABA"></path>
  <path
    d="M35.2721 27.1886C35.5971 26.4376 35.9461 25.3606 36.1321 24.5396L30.2091 23.1846C30.0801 23.7406 29.9021 24.2856 29.6821 24.8066L35.2721 27.1886Z"
    fill="#00BABA"></path>
  <path
    d="M31.4353 9.15479L27.2993 13.6088C27.7183 14.0008 28.1023 14.4258 28.4423 14.8738L33.3003 11.2248C32.8103 10.5668 32.0533 9.72579 31.4353 9.15479Z"
    fill="#00BABA"></path>
  <path
    d="M12.4774 14.8778C12.8234 14.4208 13.2064 13.9938 13.6164 13.6098L11.9504 11.8178L8.74037 8.40576C8.02437 9.07676 7.36437 9.80976 6.77637 10.5878L7.91137 11.4508L12.4774 14.8778Z"
    fill="#8DD906"></path>
  <path
    d="M4.67123 27.603L6.01323 27.04L11.2352 24.811C11.0182 24.295 10.8422 23.75 10.7112 23.188L8.32223 23.736L3.76123 24.811C3.98223 25.762 4.28823 26.701 4.67123 27.603Z"
    fill="#8DD906"></path>
  <path
    d="M17.5534 30.4971L16.8144 32.9011L15.4844 37.3241C16.4184 37.6071 17.3844 37.8101 18.3574 37.9291L18.5454 36.4481L19.2214 30.8481C18.6504 30.7781 18.0894 30.6601 17.5534 30.4971Z"
    fill="#8DD906"></path>
  <path
    d="M28.4412 26.9541C28.0952 27.4111 27.7132 27.8371 27.3022 28.2221L29.0002 30.0491L32.1782 33.4251C32.8932 32.7551 33.5542 32.0211 34.1422 31.2431L32.9792 30.3591L28.4412 26.9541Z"
    fill="#8DD906"></path>
  <path
    d="M36.2481 14.228L34.9071 14.791L29.6841 17.02C29.9021 17.536 30.0781 18.082 30.2081 18.643L32.6691 18.079L37.1591 17.02C36.9361 16.069 36.6301 15.13 36.2481 14.228Z"
    fill="#8DD906"></path>
  <path
    d="M23.3662 11.3339L24.0942 8.96488L25.4352 4.50588C24.5012 4.22288 23.5352 4.01988 22.5622 3.90088L22.3822 5.31288L21.6982 10.9819C22.2682 11.0529 22.8292 11.1709 23.3662 11.3339Z"
    fill="#8DD906"></path>
  <path
    d="M12.4774 14.8778C12.8234 14.4208 13.2064 13.9938 13.6164 13.6098L11.9504 11.8178L8.74037 8.40576C8.02437 9.07676 7.36437 9.80976 6.77637 10.5878L7.91137 11.4508L12.4774 14.8778Z"
    fill="#8DD906"></path>
  <path
    d="M4.67123 27.603L6.01323 27.04L11.2352 24.811C11.0182 24.295 10.8422 23.75 10.7112 23.188L8.32223 23.736L3.76123 24.811C3.98223 25.762 4.28823 26.701 4.67123 27.603Z"
    fill="#8DD906"></path>
  <path
    d="M17.5534 30.4971L16.8144 32.9011L15.4844 37.3241C16.4184 37.6071 17.3844 37.8101 18.3574 37.9291L18.5454 36.4481L19.2214 30.8481C18.6504 30.7781 18.0894 30.6601 17.5534 30.4971Z"
    fill="#8DD906"></path>
  <path
    d="M28.4412 26.9541C28.0952 27.4111 27.7132 27.8371 27.3022 28.2221L29.0002 30.0491L32.1782 33.4251C32.8932 32.7551 33.5542 32.0211 34.1422 31.2431L32.9792 30.3591L28.4412 26.9541Z"
    fill="#8DD906"></path>
  <path
    d="M36.2481 14.228L34.9071 14.791L29.6841 17.02C29.9021 17.536 30.0781 18.082 30.2081 18.643L32.6691 18.079L37.1591 17.02C36.9361 16.069 36.6301 15.13 36.2481 14.228Z"
    fill="#8DD906"></path>
  <path
    d="M23.3662 11.3339L24.0942 8.96488L25.4352 4.50588C24.5012 4.22288 23.5352 4.01988 22.5622 3.90088L22.3822 5.31288L21.6982 10.9819C22.2682 11.0529 22.8292 11.1709 23.3662 11.3339Z"
    fill="#8DD906"></path>
  <path
    d="M14.337 3.1626C13.31 3.5156 12.307 3.9626 11.356 4.4896L14.56 10.2436C15.167 9.9066 15.806 9.6196 16.471 9.3886L14.337 3.1626Z"
    fill="#0183D9"></path>
  <path
    d="M2.02204 17.3408C1.81704 18.4028 1.70404 19.4948 1.68604 20.5868L8.29304 20.6888C8.30504 19.9798 8.37703 19.2858 8.50603 18.6108L2.02204 17.3408Z"
    fill="#0183D9"></path>
  <path
    d="M8.14893 35.0895C8.97293 35.8045 9.85993 36.4505 10.7879 37.0085L14.1839 31.3315C13.5859 30.9705 13.0209 30.5595 12.4959 30.1045L8.14893 35.0895Z"
    fill="#0183D9"></path>
  <path
    d="M26.582 38.6676C27.609 38.3146 28.612 37.8676 29.563 37.3396L26.343 31.5586C25.737 31.8946 25.1 32.1796 24.437 32.4086L26.582 38.6676Z"
    fill="#0183D9"></path>
  <path
    d="M38.8963 24.4896C39.1013 23.4276 39.2153 22.3356 39.2323 21.2436L32.6243 21.1416C32.6103 21.8506 32.5353 22.5446 32.4053 23.2186L38.8963 24.4896Z"
    fill="#0183D9"></path>
  <path
    d="M32.769 6.74078C31.945 6.02578 31.058 5.37978 30.13 4.82178L26.75 10.4718C27.349 10.8348 27.914 11.2478 28.44 11.7058L32.769 6.74078Z"
    fill="#0183D9"></path>
  <path
    d="M10.7801 4.82373C9.84809 5.38473 8.96109 6.03073 8.14209 6.74373L12.4751 11.7077C13.0001 11.2497 13.5661 10.8367 14.1641 10.4737L10.7801 4.82373Z"
    fill="#00A8F2"></path>
  <path
    d="M1.68701 21.2525C1.69701 21.8035 1.73101 22.3505 1.78601 22.8785C1.84201 23.4085 1.92301 23.9525 2.02801 24.4975L8.51301 23.2235C8.38301 22.5495 8.30801 21.8555 8.29401 21.1465L1.68701 21.2525Z"
    fill="#00A8F2"></path>
  <path
    d="M11.3638 37.3415C12.3138 37.8685 13.3158 38.3155 14.3448 38.6705L16.4858 32.4105C15.8228 32.1815 15.1848 31.8965 14.5788 31.5605L11.3638 37.3415Z"
    fill="#00A8F2"></path>
  <path
    d="M30.1388 37.0066C31.0708 36.4456 31.9578 35.7996 32.7778 35.0856L28.4268 30.1006C27.9018 30.5566 27.3368 30.9676 26.7388 31.3286L30.1388 37.0066Z"
    fill="#00A8F2"></path>
  <path
    d="M39.2311 20.5785C39.2211 20.0275 39.1871 19.4805 39.1321 18.9525C39.0761 18.4225 38.9951 17.8785 38.8901 17.3335L32.4121 18.6065C32.5401 19.2815 32.6131 19.9755 32.6251 20.6845L39.2311 20.5785Z"
    fill="#00A8F2"></path>
  <path
    d="M26.4058 10.1497L29.5548 4.48867C28.6048 3.96167 27.6018 3.51467 26.5738 3.15967L24.4438 9.38767C25.1088 9.61767 25.7478 9.90467 26.3548 10.2417L26.4058 10.1497Z"
    fill="#00A8F2"></path>
  <path
    d="M10.7801 4.82373C9.84809 5.38473 8.96109 6.03073 8.14209 6.74373L12.4751 11.7077C13.0001 11.2497 13.5661 10.8367 14.1641 10.4737L10.7801 4.82373Z"
    fill="#00A1DF"></path>
  <path
    d="M1.68701 21.2525C1.69701 21.8035 1.73101 22.3505 1.78601 22.8785C1.84201 23.4085 1.92301 23.9525 2.02801 24.4975L8.51301 23.2235C8.38301 22.5495 8.30801 21.8555 8.29401 21.1465L1.68701 21.2525Z"
    fill="#00A1DF"></path>
  <path
    d="M11.3638 37.3415C12.3138 37.8685 13.3158 38.3155 14.3448 38.6705L16.4858 32.4105C15.8228 32.1815 15.1848 31.8965 14.5788 31.5605L11.3638 37.3415Z"
    fill="#00A1DF"></path>
  <path
    d="M30.1388 37.0066C31.0708 36.4456 31.9578 35.7996 32.7778 35.0856L28.4268 30.1006C27.9018 30.5566 27.3368 30.9676 26.7388 31.3286L30.1388 37.0066Z"
    fill="#00A1DF"></path>
  <path
    d="M39.2311 20.5785C39.2211 20.0275 39.1871 19.4805 39.1321 18.9525C39.0761 18.4225 38.9951 17.8785 38.8901 17.3335L32.4121 18.6065C32.5401 19.2815 32.6131 19.9755 32.6251 20.6845L39.2311 20.5785Z"
    fill="#00A1DF"></path>
  <path
    d="M26.4058 10.1497L29.5548 4.48867C28.6048 3.96167 27.6018 3.51467 26.5738 3.15967L24.4438 9.38767C25.1088 9.61767 25.7478 9.90467 26.3548 10.2417L26.4058 10.1497Z"
    fill="#00A1DF"></path>
  <path
    d="M5.07489 10.1548C4.45189 11.0448 3.90189 11.9948 3.44189 12.9798L9.42689 15.7558C9.72289 15.1198 10.0729 14.5138 10.4699 13.9438L5.07489 10.1548Z"
    fill="#00C000"></path>
  <path
    d="M3.44287 28.8607C3.90087 29.8417 4.45087 30.7917 5.07787 31.6857L10.4899 27.8797C10.0919 27.3117 9.74087 26.7077 9.44387 26.0737L3.44287 28.8607Z"
    fill="#00C000"></path>
  <path
    d="M35.8441 31.6768C36.4671 30.7868 37.0171 29.8368 37.4771 28.8518L31.4781 26.0688C31.1801 26.7028 30.8301 27.3068 30.4321 27.8758L35.8441 31.6768Z"
    fill="#00C000"></path>
  <path
    d="M37.4758 12.9705C37.0178 11.9895 36.4678 11.0395 35.8408 10.1455L30.4458 13.9395C30.8428 14.5095 31.1928 15.1155 31.4898 15.7515L37.4758 12.9705Z"
    fill="#00C000"></path>
  <path
    d="M21.5037 8.76367L22.0867 2.20767C21.5567 2.16267 21.0177 2.13867 20.4847 2.13867C19.9337 2.13867 19.3757 2.16367 18.8237 2.21167L19.4097 8.76267C19.7557 8.73267 20.1057 8.71667 20.4587 8.71667C20.8107 8.71867 21.1587 8.73467 21.5037 8.76367Z"
    fill="#00C000"></path>
  <path
    d="M19.418 33.0308L18.832 39.6198C19.384 39.6678 19.934 39.6918 20.469 39.6918C21.001 39.6918 21.548 39.6678 22.097 39.6208L21.506 33.0308C21.161 33.0598 20.812 33.0758 20.46 33.0758C20.108 33.0758 19.761 33.0598 19.418 33.0308Z"
    fill="#00C000"></path>
  <path
    d="M59.6998 20.4074C61.2608 20.8664 62.6158 22.1514 62.6158 24.2854C62.6158 26.7654 60.8478 28.9684 56.8538 28.9684H49.9448V12.9014H56.8768C59.7688 12.9014 61.7648 14.8534 61.7648 17.0794C61.7648 18.8694 60.5718 19.9934 59.6988 20.3154L59.6998 20.4074ZM56.1418 19.2594C57.1968 19.2594 57.8858 18.6164 57.8858 17.6754C57.8858 16.7804 57.2208 16.0914 56.1188 16.0914H53.7998V19.2594H56.1418ZM56.5088 25.7774C57.8398 25.7774 58.5518 25.0204 58.5518 23.9414C58.5518 22.7944 57.7708 22.1044 56.5088 22.1044H53.7998V25.7774H56.5088Z"
    fill="#1C426E"></path>
  <path
    d="M72.3441 28.9674H68.4881V22.6334L62.4971 12.9004H66.9501L69.4281 17.2614C70.0021 18.2724 70.4841 19.1444 70.5071 19.1664H70.5761C70.5991 19.1434 71.0811 18.2484 71.6551 17.2614L74.2251 12.9004H78.3341L72.3441 22.6334V28.9674Z"
    fill="#1C426E"></path>
  <path
    d="M92.2166 25.0424C92.2166 21.2324 92.2626 19.3504 92.2626 19.3274H92.2166C92.1946 19.3504 91.4126 20.7964 90.6336 22.1724L89.0716 24.9954H86.9146L85.3536 22.2194C84.5506 20.7954 83.7926 19.3494 83.7706 19.3264H83.7016C83.7016 19.3494 83.7476 21.2314 83.7476 25.0414V28.9654H79.8916V12.9014H83.9766L88.0166 20.0854H88.0856L92.1476 12.9014H96.0726V28.9674H92.2166V25.0424Z"
    fill="#1C426E"></path>
  <path
    d="M102.679 26.3054L101.715 28.9674H97.6519L103.85 12.9004H108.233L114.454 28.9674H110.322L109.357 26.3054H102.679ZM106.948 19.6034C106.444 18.2714 106.076 17.2624 106.053 17.2384H105.984C105.961 17.2624 105.594 18.2494 105.089 19.5804L103.942 22.7934H108.095L106.948 19.6034Z"
    fill="#1C426E"></path>
</svg>
