<svg version="1.0" xmlns="http://www.w3.org/2000/svg"
 width="316.000000pt" height="319.000000pt" viewBox="0 0 316.000000 319.000000"
 preserveAspectRatio="xMidYMid meet">

<g transform="translate(0.000000,319.000000) scale(0.100000,-0.100000)"
fill="#000000" stroke="none">
<path d="M1425 3091 c-254 -30 -490 -116 -703 -257 -120 -80 -320 -281 -401
-403 -115 -173 -189 -349 -233 -555 -32 -146 -32 -436 0 -582 44 -206 118
-382 233 -555 81 -122 281 -323 401 -403 465 -308 1033 -348 1518 -106 417
209 711 593 812 1064 31 146 31 436 0 582 -88 410 -319 752 -655 972 -168 110
-377 195 -561 227 -109 19 -316 27 -411 16z m117 -138 c38 -44 28 -106 -19
-124 -41 -15 -72 -3 -89 36 -22 54 7 105 61 105 18 0 39 -8 47 -17z m129 -34
c34 -54 44 -52 37 7 -3 26 0 34 12 34 14 0 15 -8 7 -70 -6 -38 -13 -70 -17
-70 -5 0 -23 23 -41 51 -34 54 -44 52 -37 -7 3 -27 0 -34 -13 -34 -14 0 -15 6
-7 52 5 28 7 59 5 70 -10 36 21 17 54 -33z m-294 -15 c1 -31 7 -61 12 -68 13
-15 4 -26 -18 -26 -13 0 -17 11 -19 44 -1 24 -6 55 -11 69 -10 26 -9 27 29 36
3 0 6 -24 7 -55z m486 -31 c8 -43 14 -79 13 -81 -9 -9 -41 16 -41 33 0 13 -8
21 -22 23 -18 3 -23 -2 -23 -17 0 -22 -24 -29 -35 -11 -3 6 -2 10 2 10 5 0 25
27 44 60 18 33 37 60 40 60 3 0 13 -35 22 -77z m-575 36 c2 -22 1 -23 -11 -6
-39 49 -88 -15 -57 -74 14 -24 65 -26 80 -1 10 16 10 15 8 -3 -4 -26 -50 -42
-85 -29 -54 19 -56 105 -3 131 36 18 64 10 68 -18z m702 -6 c2 -2 0 -7 -6 -11
-6 -4 -18 -29 -27 -55 -15 -44 -15 -49 0 -54 9 -3 24 -1 34 6 15 9 19 8 19 -3
0 -8 -4 -17 -9 -21 -13 -8 -101 15 -101 26 0 5 4 9 9 9 10 0 37 89 33 108 -2
10 3 12 20 7 13 -4 25 -9 28 -12z m-898 -32 c2 -5 22 -30 45 -55 24 -24 40
-47 35 -49 -28 -15 -44 -16 -39 -2 8 19 -8 28 -33 20 -21 -7 -28 -35 -9 -35 5
0 7 -4 4 -10 -3 -5 -13 -10 -21 -10 -11 0 -14 16 -14 75 0 58 3 75 14 75 8 0
16 -4 18 -9z m1081 -32 c64 -33 83 -81 51 -127 -19 -28 -65 -29 -114 -2 -19
11 -29 19 -23 20 16 0 62 90 56 108 -6 15 2 15 30 1z m-1193 -16 c0 -10 11
-38 25 -61 14 -24 22 -48 19 -53 -3 -5 -28 3 -56 17 -27 14 -52 23 -55 21 -2
-3 4 -19 15 -36 10 -17 22 -28 25 -24 4 3 7 1 7 -5 0 -7 -2 -12 -4 -12 -2 0
-11 -3 -20 -6 -11 -4 -16 -1 -16 10 0 23 -38 96 -50 96 -6 0 -10 5 -10 10 0
16 38 11 81 -11 23 -11 43 -18 46 -16 2 3 -4 19 -15 36 -10 17 -22 28 -25 24
-4 -3 -7 -1 -7 5 0 10 15 19 33 21 4 1 7 -7 7 -16z m817 -78 c422 -81 780
-397 912 -803 16 -48 35 -118 42 -157 18 -92 18 -348 0 -440 -98 -492 -477
-869 -968 -961 -126 -23 -322 -21 -453 6 -559 113 -960 604 -960 1175 0 754
686 1322 1427 1180z m583 -41 c0 -7 -4 -16 -10 -19 -5 -3 -10 3 -10 13 0 25
-25 35 -40 17 -15 -18 -4 -36 16 -28 14 5 14 3 3 -16 -16 -25 -29 -27 -29 -6
0 21 -13 19 -29 -6 -11 -18 -11 -23 1 -30 7 -5 23 -7 36 -4 21 5 22 4 12 -15
-10 -19 -12 -20 -38 -5 -15 9 -36 23 -47 31 -18 14 -19 16 -3 25 22 12 64 80
60 97 -2 7 14 1 37 -14 23 -15 41 -33 41 -40z m-1579 -66 c17 -21 29 -42 26
-45 -4 -3 -33 1 -66 10 l-61 15 21 -27 c11 -14 27 -28 35 -31 13 -5 12 -9 -5
-24 -21 -19 -21 -19 -21 1 0 11 -18 39 -39 62 -47 50 -37 59 43 38 53 -14 55
-14 46 3 -6 11 -20 26 -32 34 -18 13 -19 17 -8 31 13 15 15 15 22 -5 5 -13 22
-40 39 -62z m1704 -18 c15 -17 16 -20 3 -20 -9 0 -19 -11 -22 -24 -3 -13 -9
-32 -12 -40 -6 -15 -3 -15 30 0 20 10 36 24 36 31 0 11 5 11 20 3 23 -13 26
-30 5 -30 -8 0 -39 -12 -69 -27 -31 -15 -58 -25 -60 -22 -6 6 37 149 45 149 3
0 14 -9 24 -20z m-1945 -40 c0 -11 -4 -20 -10 -20 -5 0 -10 9 -10 20 0 11 5
20 10 20 6 0 10 -9 10 -20z m84 -11 c36 -17 54 -65 35 -98 -30 -53 -102 -50
-128 6 -16 36 -14 51 14 78 27 28 42 30 79 14z m2006 -84 c0 -3 -13 -29 -30
-58 -16 -30 -30 -61 -30 -70 0 -23 -17 -21 -30 2 -12 24 -13 34 -1 27 18 -11
19 23 1 39 -17 15 -19 15 -28 -1 -8 -15 -13 -16 -26 -5 -9 7 -13 18 -10 23 3
5 8 7 11 4 3 -2 32 6 66 19 65 25 77 28 77 20z m-2154 -24 c-6 -9 74 -78 87
-73 10 3 9 -5 -4 -26 -11 -17 -15 -15 -56 25 -24 24 -48 41 -53 38 -14 -9 -12
19 2 33 14 14 32 16 24 3z m2227 -98 c-6 -2 -30 -17 -52 -33 -45 -33 -46 -60
-2 -60 25 -1 25 -1 7 -15 -27 -20 -28 -20 -58 28 -24 36 -25 42 -11 46 25 5
93 52 93 64 0 6 8 3 18 -7 12 -13 13 -20 5 -23z m-2274 13 c10 -12 7 -15 -16
-18 -17 -2 -29 -10 -31 -20 -4 -23 17 -23 63 -1 33 16 37 16 51 1 18 -18 14
-50 -10 -81 -13 -16 -17 -17 -38 -5 l-23 13 28 3 c31 4 46 27 29 44 -8 8 -18
6 -36 -6 -30 -19 -57 -21 -74 -4 -17 17 -15 32 9 62 23 30 32 32 48 12z m-89
-106 c0 -11 68 -56 94 -61 15 -4 16 -6 2 -24 -11 -13 -18 -16 -23 -9 -14 20
-88 61 -101 57 -10 -4 -10 1 -1 21 12 26 29 35 29 16z m2452 -27 c25 -22 23
-71 -4 -100 -43 -46 -121 -16 -121 47 0 60 80 94 125 53z m-2502 -62 c0 -11
90 -47 107 -43 10 2 10 -3 1 -23 -6 -14 -14 -21 -18 -16 -3 6 -24 18 -45 27
l-40 16 38 -39 c20 -21 37 -42 37 -46 0 -4 -24 -7 -52 -7 l-53 -1 35 -18 c19
-11 38 -17 42 -14 5 2 8 -3 8 -11 0 -8 -4 -18 -10 -21 -5 -3 -10 -2 -10 3 0
13 -96 55 -109 48 -13 -9 -14 4 -2 23 7 11 26 14 68 12 l58 -2 -43 44 c-29 30
-41 49 -36 60 7 18 24 23 24 8z m2578 -94 c16 -44 15 -62 -3 -77 -12 -10 -21
-10 -40 -2 -21 10 -25 8 -37 -18 -7 -17 -16 -30 -20 -30 -13 0 -9 35 7 56 26
34 11 49 -19 18 -15 -14 -17 -13 -25 8 -7 18 -5 24 8 26 35 7 101 35 101 43 0
21 17 6 28 -24z m-2588 -122 c81 -42 22 -159 -62 -124 -53 22 -63 75 -23 114
28 29 45 31 85 10z m2650 -72 c0 -13 -6 -23 -13 -23 -9 0 -12 10 -9 31 4 29 3
31 -19 24 -34 -10 -35 -13 -13 -30 10 -8 14 -15 7 -15 -6 0 -19 -3 -28 -7 -14
-5 -16 -2 -10 15 7 24 -8 29 -35 12 -12 -7 -13 -13 -3 -27 6 -10 16 -17 22
-15 20 4 11 -16 -9 -21 -16 -4 -22 2 -30 35 -6 21 -13 45 -16 51 -3 8 9 13 34
13 21 1 52 8 68 16 28 14 30 13 41 -11 7 -14 12 -36 13 -48z m20 -92 c5 -11
10 -31 10 -45 0 -22 -5 -26 -27 -26 -26 1 -27 2 -10 15 10 7 17 21 15 31 -6
32 -23 25 -43 -18 -22 -47 -51 -60 -72 -32 -18 25 -17 73 2 81 9 3 19 2 23 -2
4 -4 1 -10 -5 -12 -19 -7 -16 -53 2 -53 9 0 18 8 21 18 16 52 25 62 48 62 15
0 30 -8 36 -19z m-2760 3 c0 -3 -10 -14 -22 -23 -26 -21 -19 -46 16 -62 52
-24 101 15 76 61 -7 14 -7 20 0 20 18 0 30 -47 20 -74 -18 -48 -71 -59 -114
-25 -23 18 -26 28 -25 65 2 39 6 44 26 44 13 0 23 -3 23 -6z m63 -266 c16 -24
0 -67 -27 -74 -36 -9 -66 12 -66 46 0 53 65 73 93 28z m2734 3 c22 -45 -23
-90 -68 -68 -30 15 -36 52 -13 78 24 27 65 21 81 -10z m-2429 -811 c-2 -19
-10 -26 -30 -28 -21 -2 -28 -10 -33 -34 -5 -20 -10 -27 -17 -20 -7 7 -7 20 0
41 12 33 3 41 -18 16 -10 -12 -16 -13 -27 -4 -11 10 -8 15 16 30 16 9 37 29
47 42 l19 25 23 -21 c15 -14 22 -30 20 -47z m2109 -3 c8 0 9 -6 2 -19 -9 -17
-11 -17 -26 -3 -12 12 -18 13 -29 4 -17 -14 -18 -36 -1 -42 9 -3 9 -8 1 -16
-8 -9 -19 4 -42 48 -18 32 -32 61 -32 64 0 3 26 -3 58 -15 31 -11 62 -20 69
-21z m-2015 -65 c16 -14 14 -42 -3 -42 -4 0 -6 6 -3 13 3 8 -2 19 -9 26 -12 9
-18 8 -31 -4 -19 -20 -12 -37 12 -28 15 6 15 5 3 -10 -12 -16 -15 -16 -25 -1
-11 14 -13 13 -29 -4 -16 -17 -16 -21 -2 -32 8 -7 22 -10 30 -6 18 7 20 -5 3
-22 -9 -9 -19 -5 -43 18 l-31 30 38 42 c21 23 38 46 38 51 0 9 13 1 52 -31z
m1908 -56 c14 -19 13 -19 -30 -12 -25 4 -56 10 -70 13 l-25 6 29 -31 c16 -17
33 -29 39 -25 5 3 8 0 5 -7 -8 -26 -23 -19 -56 26 -18 24 -37 42 -43 39 -5 -4
-9 -1 -9 6 0 9 18 10 67 5 l67 -7 -24 25 c-13 15 -30 26 -38 26 -11 0 -12 3
-3 14 10 12 17 9 44 -22 18 -20 39 -46 47 -56z m-1826 -17 c48 -38 22 -93 -34
-72 -22 8 -32 8 -40 -1 -5 -7 -7 -16 -3 -19 3 -4 2 -7 -3 -7 -6 0 -15 5 -20
10 -8 8 1 24 27 52 21 23 36 45 33 50 -10 15 13 8 40 -13z m1688 -71 c18 -19
23 -29 15 -37 -14 -14 -27 -14 -27 1 0 19 -52 88 -61 82 -5 -3 -9 -1 -9 5 0 5
8 14 17 20 14 7 20 4 29 -17 6 -15 23 -39 36 -54z m-89 19 c4 -10 -2 -13 -19
-9 -13 2 -24 1 -24 -3 0 -11 41 -68 59 -83 14 -11 14 -14 1 -22 -22 -14 -27
-12 -34 13 -3 12 -17 36 -31 52 -24 30 -25 30 -31 8 -3 -13 -10 -20 -15 -17
-17 10 -9 23 28 49 42 28 59 31 66 12z m-1516 -8 c9 -9 6 -17 -8 -33 -37 -40
-37 -96 0 -96 18 0 69 66 63 83 -1 4 2 7 6 7 21 0 18 -15 -11 -56 -27 -38 -36
-44 -61 -42 -16 2 -35 12 -42 24 -13 18 -11 26 10 66 14 26 22 49 19 52 -4 3
-2 6 3 6 6 0 15 -5 21 -11z m73 1 c0 -5 -10 -10 -22 -9 -22 0 -22 1 -3 9 11 5
21 9 23 9 1 1 2 -3 2 -9z m1315 -60 c-3 -5 6 -32 20 -59 14 -28 25 -52 25 -55
0 -3 -25 6 -55 19 -30 14 -55 22 -55 19 0 -11 23 -49 34 -56 8 -6 6 -11 -4
-18 -11 -7 -16 -4 -21 13 -10 39 -39 87 -52 87 -8 0 -7 3 2 9 10 7 30 2 63
-15 26 -13 50 -24 53 -24 2 0 -3 16 -12 35 -9 19 -21 35 -27 35 -6 0 -4 5 4
10 19 13 33 13 25 0z m-1235 -25 c34 -17 43 -65 14 -65 -13 0 -14 -3 -5 -14
13 -16 6 -42 -15 -50 -8 -3 -30 1 -49 8 l-34 15 29 52 c16 29 26 57 24 61 -8
12 4 10 36 -7z m1093 -49 c4 -11 -1 -14 -20 -13 -28 2 -38 -10 -24 -32 8 -12
13 -12 24 -3 12 10 16 9 21 -3 4 -10 -1 -15 -15 -15 -16 0 -19 -4 -13 -22 9
-31 9 -31 33 -18 12 6 21 18 22 28 0 14 2 13 8 -3 6 -15 3 -23 -13 -31 -54
-29 -61 -27 -75 22 -7 25 -20 51 -27 59 -11 11 -7 16 24 29 47 19 49 19 55 2z
m-980 -3 c4 -3 2 -11 -3 -18 -5 -6 -16 -30 -24 -53 -14 -39 -14 -41 5 -47 11
-4 27 -1 36 7 15 12 15 11 5 -9 -11 -21 -13 -21 -51 -6 l-39 15 19 42 c10 22
19 49 19 59 0 17 20 23 33 10z m117 -42 c0 -4 -3 -11 -7 -15 -12 -11 -33 -89
-27 -98 6 -9 1 -10 -19 -2 -14 5 -14 10 0 41 8 20 15 48 15 63 1 22 5 26 19
23 11 -3 19 -9 19 -12z m740 -20 c0 -11 -4 -10 -19 3 -15 14 -24 15 -40 6 -40
-21 -20 -100 25 -100 26 0 47 31 26 38 -18 6 -14 19 8 25 17 4 20 0 20 -28 0
-68 -103 -71 -121 -3 -10 37 11 71 51 84 36 12 50 6 50 -25z m-612 -3 c6 -1
12 -10 12 -20 0 -23 -5 -23 -30 2 -25 25 -56 13 -66 -27 -9 -36 7 -58 45 -58
37 0 41 -12 6 -21 -16 -4 -34 0 -50 10 -53 35 -17 136 43 122 15 -4 33 -7 40
-8z m443 -8 c21 -12 26 -45 8 -56 -7 -4 0 -17 17 -35 21 -22 24 -29 11 -29 -9
0 -28 12 -43 28 l-26 27 6 -32 c4 -27 2 -33 -12 -33 -13 0 -18 11 -20 52 -2
29 -7 58 -13 64 -8 9 -3 14 18 17 15 2 29 5 31 6 2 0 12 -4 23 -9z m-323 -72
l20 -68 -20 0 c-14 0 -18 5 -14 15 3 9 -3 19 -15 25 -23 13 -43 4 -35 -16 3
-9 -1 -14 -13 -14 -17 0 -15 8 16 66 19 36 36 64 38 62 2 -2 12 -33 23 -70z
m192 10 c12 -29 24 -59 27 -65 3 -8 -3 -13 -15 -13 -13 0 -19 6 -18 18 1 12
-6 17 -24 17 -18 0 -25 -5 -24 -17 1 -12 -5 -18 -18 -18 -15 0 -18 3 -11 13 6
6 18 36 27 65 10 28 21 52 25 52 5 0 18 -24 31 -52z"/>
<path d="M1470 2944 c-29 -34 -8 -104 31 -104 42 0 49 89 9 110 -24 13 -25 13
-40 -6z"/>
<path d="M1817 2885 c-8 -20 -4 -29 11 -24 5 2 6 13 2 23 -6 19 -7 19 -13 1z"/>
<path d="M1080 2822 c0 -14 6 -22 16 -22 14 0 15 3 3 18 -7 9 -15 19 -16 21
-2 2 -3 -5 -3 -17z"/>
<path d="M2152 2765 c-12 -25 -22 -48 -22 -51 0 -3 15 -4 32 -2 40 4 66 45 48
78 -17 31 -34 24 -58 -25z"/>
<path d="M1330 2709 c-233 -50 -434 -163 -603 -338 -441 -459 -434 -1178 17
-1627 227 -227 509 -344 826 -344 441 0 837 243 1037 636 108 211 148 427 123
652 -45 405 -286 747 -654 927 -168 83 -273 107 -481 111 -143 3 -185 0 -265
-17z m-292 -854 c50 -21 112 -65 112 -79 0 -7 -20 -28 -44 -49 -40 -33 -45
-35 -58 -20 -22 27 -90 53 -138 53 -101 0 -180 -69 -188 -165 -6 -70 11 -116
58 -159 63 -57 178 -63 244 -13 19 15 38 27 43 27 17 -1 84 -72 80 -84 -10
-25 -100 -75 -155 -87 -226 -46 -417 90 -416 296 1 143 87 250 233 292 56 16
176 9 229 -12z m477 -162 l150 -177 3 177 2 177 70 0 70 0 0 -295 0 -295 -60
0 -59 0 -151 176 -150 176 0 -176 0 -176 -70 0 -70 0 0 295 0 295 58 0 57 0
150 -177z m596 -28 c48 -110 91 -199 95 -198 3 1 47 92 97 202 l90 201 69 0
c62 0 69 -2 64 -17 -3 -10 -62 -142 -129 -293 l-124 -275 -73 0 -73 0 -128
285 c-71 157 -128 289 -129 293 0 4 34 7 76 5 l77 -3 88 -200z"/>
<path d="M578 2549 c-23 -13 -23 -30 2 -61 25 -32 56 -41 75 -21 21 21 19 31
-14 64 -32 32 -38 33 -63 18z"/>
<path d="M2580 2450 c-10 -6 -12 -12 -5 -19 7 -7 14 -4 23 9 13 21 6 25 -18
10z"/>
<path d="M2739 2225 c-29 -16 -41 -37 -33 -59 19 -49 110 -8 102 46 -4 28 -32
33 -69 13z"/>
<path d="M2832 2061 c-10 -6 -10 -10 2 -21 19 -15 46 -6 46 15 0 16 -27 20
-48 6z"/>
<path d="M222 1942 c-22 -15 -10 -55 22 -70 51 -25 104 23 63 57 -20 16 -70
23 -85 13z"/>
<path d="M520 746 c-10 -13 -9 -17 4 -22 22 -8 49 3 44 19 -7 18 -33 20 -48 3z"/>
<path d="M2590 733 c0 -4 5 -15 10 -23 7 -11 12 -12 21 -3 8 8 6 14 -10 22
-12 7 -21 8 -21 4z"/>
<path d="M722 568 c-20 -20 -14 -40 11 -36 14 2 22 10 22 22 0 24 -16 31 -33
14z"/>
<path d="M966 414 c-9 -23 -8 -24 14 -24 13 0 20 7 20 20 0 24 -25 27 -34 4z"/>
<path d="M941 362 c-12 -22 -6 -32 21 -32 14 0 19 6 16 22 -4 29 -24 34 -37
10z"/>
<path d="M1750 285 c0 -20 4 -26 18 -23 9 2 17 12 17 23 0 11 -8 21 -17 23
-14 3 -18 -3 -18 -23z"/>
<path d="M1427 265 c-8 -20 -4 -29 11 -24 5 2 6 13 2 23 -6 19 -7 19 -13 1z"/>
<path d="M1617 250 c-3 -13 0 -20 9 -20 15 0 19 26 5 34 -5 3 -11 -3 -14 -14z"/>
</g>
</svg>
