<svg
  width="228"
  height="56"
  viewBox="0 0 228 56"
  fill="none"
  xmlns="http://www.w3.org/2000/svg"
>
  <rect width="228" height="56" fill="#652F6C"></rect>
  <path
    d="M36 40.3262C36 40.8145 35.8079 40.9975 35.4236 40.9975H33.8867C33.7948 41.0057 33.7021 40.9934 33.616 40.9616C33.5299 40.9298 33.4528 40.8793 33.3907 40.8142C33.3286 40.7491 33.2832 40.6711 33.2581 40.5864C33.2331 40.5017 33.229 40.4127 33.2463 40.3262C32.9901 32.6979 32.67 24.5813 32.2217 17.7462H31.9655C29.9803 23.1776 27.5468 30.0737 25.4975 34.7728C24.9852 35.8713 24.4729 36.1154 23.5123 36.1154H22.4236C21.4631 36.1154 21.0148 35.8713 20.5025 34.7728C18.4532 30.0737 16.0197 23.1776 14.0345 17.7462H13.7783C13.266 24.6423 13.0098 32.6979 12.7537 40.3262C12.771 40.4127 12.7669 40.5017 12.7419 40.5864C12.7168 40.6711 12.6714 40.7491 12.6093 40.8142C12.5472 40.8793 12.4701 40.9298 12.384 40.9616C12.2979 40.9934 12.2052 41.0057 12.1133 40.9975H10.5764C10.1921 40.9975 10 40.8145 10 40.3262C10.3202 32.5758 10.7044 23.7269 11.4089 16.1595C11.4729 15.3051 11.7931 15 12.8177 15H14.4187C15.5074 15 15.7635 15.061 16.2118 16.2205C18.2611 21.5299 20.7586 28.487 22.8719 33.6743H23.064C25.1773 28.487 27.803 21.5299 29.7241 16.2205C30.1724 15.061 30.4286 15 31.5172 15H33.1182C34.1429 15 34.4631 15.3051 34.5271 16.1595C35.1675 23.6658 35.6798 32.5758 36 40.3262Z"
    fill="white"></path>
  <path
    d="M51.5654 35.8882H51.5C50.584 37.2546 49.2102 38 47.0512 38H44.9577C43.1913 38 41.4248 37.5031 40.5089 36.5714C40.0049 36.0797 39.6115 35.4957 39.3528 34.855C39.0941 34.2143 38.9755 33.5303 39.0042 32.8447V31.6646C39.0042 29.2422 40.1164 27.441 42.2753 26.6956C43.1913 26.323 44.6306 26.1366 47.2475 26.1366H48.4905C49.4064 26.1366 50.4532 26.1987 51.3037 26.2609V24.0248C51.3037 20.9814 49.5373 20.1739 46.2661 20.1739C44.8016 20.1672 43.3449 20.3767 41.9482 20.795C41.294 20.9814 40.9669 20.9814 40.836 20.4845L40.6398 19.677C40.585 19.5899 40.5535 19.4915 40.5481 19.3902C40.5427 19.2889 40.5635 19.1878 40.6086 19.0959C40.6538 19.004 40.722 18.924 40.8073 18.8629C40.8925 18.8018 40.9922 18.7614 41.0977 18.7453C42.8459 18.2839 44.6483 18.0334 46.4624 18C51.8271 18 53.986 19.677 53.986 23.8385V37.3789C54.0031 37.4485 54.0045 37.5208 53.9902 37.591C53.9759 37.6613 53.9462 37.7279 53.903 37.7865C53.8598 37.845 53.8041 37.8943 53.7395 37.9311C53.6749 37.9679 53.6028 37.9914 53.5281 38H52.1542C51.7616 38 51.6308 37.8758 51.6308 37.6273L51.5654 35.8882ZM51.3037 28.3727C50.6495 28.3106 49.7335 28.2484 48.8176 28.2484H46.4624C44.6306 28.2484 43.5184 28.4969 42.7987 29.0559C42.0791 29.6149 41.7519 30.4224 41.7519 31.6646V32.472C41.7519 33.7143 42.0136 34.5217 42.6024 35.0186C43.1913 35.5155 43.9763 35.7019 45.1539 35.7019H46.8549C49.6027 35.7019 51.3037 34.3354 51.3037 31.6025V28.3727Z"
    fill="white"></path>
  <path
    d="M65.9674 40.9347C63.8073 40.9347 62.2364 40.4121 61.32 39.3015C60.4037 38.191 59.9455 36.6231 59.9455 34.5327V22.5779H57.3927C57.1309 22.5779 57 22.5126 57 22.1206V21.2714C57 20.8794 57.1309 20.7488 57.3927 20.7488L59.9455 20.2262V15.5227C59.9446 15.4538 59.9576 15.3854 59.9836 15.3216C60.0096 15.2578 60.0481 15.1999 60.0969 15.1512C60.1457 15.1025 60.2038 15.064 60.2677 15.038C60.3316 15.0121 60.4001 14.9992 60.4691 15H62.2364C62.3022 15.0004 62.3671 15.0148 62.4269 15.0421C62.4867 15.0694 62.5401 15.109 62.5834 15.1584C62.6267 15.2078 62.659 15.2658 62.6782 15.3286C62.6973 15.3914 62.7029 15.4576 62.6946 15.5227V20.2262H67.6037C67.6571 20.2185 67.7115 20.2234 67.7626 20.2404C67.8138 20.2574 67.8603 20.286 67.8984 20.324C67.9365 20.3621 67.9652 20.4085 67.9822 20.4595C67.9993 20.5106 68.0041 20.5649 67.9965 20.6181V22.186C68.0041 22.2392 67.9993 22.2935 67.9822 22.3446C67.9652 22.3956 67.9365 22.442 67.8984 22.48C67.8603 22.5181 67.8138 22.5467 67.7626 22.5637C67.7115 22.5807 67.6571 22.5856 67.6037 22.5779H62.6946V34.206C62.6946 35.7085 62.8255 36.8844 63.4146 37.603C64.0037 38.3216 64.9201 38.6482 66.4256 38.6482H67.3419C67.6037 38.6482 67.8656 38.2563 67.8656 38.7136V40.1507C67.8656 40.412 67.7346 41 67.3419 41H65.9674V40.9347Z"
    fill="white"></path>
  <path
    d="M73.5513 23.5327H73.612C74.5229 22.4597 76.2232 21.6847 78.4701 21.6847C83.6317 21.6847 86 24.427 86 30.5077V32.2366C86 38.9135 83.2066 41 78.2879 41C75.4945 41 73.5513 40.2846 72.4583 39.0327C71.4866 37.9 71.0008 36.4693 71.0008 34.3827V15.4251C70.9968 15.3639 71.0072 15.3027 71.0312 15.2461C71.0551 15.1896 71.092 15.1392 71.1389 15.0988C71.1859 15.0585 71.2417 15.0293 71.302 15.0135C71.3623 14.9977 71.4255 14.9957 71.4866 15.0078H73.0655C73.126 15.0002 73.1875 15.0053 73.2459 15.0227C73.3042 15.0402 73.3582 15.0696 73.4041 15.1091C73.45 15.1485 73.4869 15.1971 73.5122 15.2515C73.5376 15.306 73.5509 15.3652 73.5513 15.4251V23.5327ZM82.3565 37.3635C83.1459 36.2904 83.4495 34.7404 83.4495 31.9385V30.6269C83.4495 27.7654 82.9637 25.977 81.9314 24.9635C81.0812 24.1289 79.9882 23.7712 78.2272 23.7712C76.4661 23.7712 75.3123 24.2481 74.5836 24.9039C73.7335 25.7385 73.5513 26.6923 73.5513 28.8385V34.025C73.5513 35.6943 73.7942 36.5885 74.3407 37.3635C75.1302 38.4366 76.4661 38.7942 78.3486 38.7942C80.2311 38.7942 81.5671 38.4366 82.3565 37.3635Z"
    fill="white"></path>
  <path
    d="M104.64 26.2236H102.619V23.4224C102.619 18.9131 100.597 17 95.7815 17C94.1329 17.0368 92.4949 17.3123 90.9063 17.8199C90.8105 17.8376 90.7198 17.882 90.6424 17.9492C90.5649 18.0164 90.5029 18.1044 90.4618 18.2055C90.4208 18.3066 90.4019 18.4178 90.4068 18.5292C90.4118 18.6406 90.4404 18.7489 90.4901 18.8447L90.6685 19.7329C90.7874 20.2795 91.0847 20.2795 91.6792 20.0745C92.955 19.6474 94.2746 19.4177 95.6032 19.3913C98.5758 19.3913 100.181 20.2795 100.181 23.6273V26.087C99.4082 26.0186 98.4569 25.9503 97.6246 25.9503H96.495C94.1168 25.9503 92.8088 26.1553 91.9765 26.5652C90.074 27.4534 89.0038 29.3665 89.0038 32.0311V33.3292C88.9778 34.0834 89.0855 34.8357 89.3206 35.5405C89.5557 36.2453 89.9132 36.8877 90.3712 37.4286C91.263 38.4534 92.8088 39 94.4141 39H96.3166C98.2191 39 99.5271 38.2485 100.359 36.677H100.419L100.478 38.3851C100.481 38.4502 100.496 38.5139 100.523 38.5715C100.55 38.6291 100.587 38.6792 100.632 38.7183C100.678 38.7575 100.73 38.7846 100.786 38.7979C100.841 38.8111 100.899 38.8102 100.954 38.795H102.202C102.559 38.795 102.619 38.6584 102.619 38.3851V28.3416H104.64C104.689 28.3496 104.738 28.3445 104.784 28.3268C104.831 28.309 104.873 28.279 104.908 28.2392C104.942 28.1995 104.968 28.1509 104.984 28.0976C104.999 28.0442 105.004 27.9874 104.997 27.9317V26.4969C104.991 26.4512 104.976 26.4074 104.954 26.3684C104.933 26.3294 104.904 26.296 104.871 26.2703C104.837 26.2446 104.799 26.2272 104.76 26.2192C104.72 26.2111 104.679 26.2126 104.64 26.2236ZM100.122 28.6832V32.1677C100.122 35.1739 98.6353 36.677 96.0788 36.677H94.533C93.7069 36.7513 92.8848 36.4849 92.2143 35.9255C91.6792 35.3789 91.4414 34.4907 91.4414 33.1242V32.236C91.4414 30.8696 91.7387 29.913 92.3926 29.3665C93.0466 28.8199 94.0574 28.6149 95.722 28.6149L97.1489 28.5466H98.6353C99.1329 28.5526 99.6295 28.5982 100.122 28.6832Z"
    fill="white"></path>
  <path
    d="M132.813 44.1992L124.026 29.5949C127.992 28.5574 130.17 25.4451 130.17 21.0558V20.0183C130.17 13.7935 126.126 11.0003 118.739 11.0003C116.472 10.9909 114.209 11.1778 111.973 11.559C111.847 11.5582 111.722 11.5859 111.608 11.6401C111.493 11.6943 111.391 11.7737 111.31 11.8726C111.228 11.9715 111.169 12.0876 111.135 12.2127C111.102 12.3378 111.096 12.4688 111.118 12.5964V27.5998H108.319C108.276 27.5888 108.231 27.5894 108.188 27.6016C108.145 27.6137 108.106 27.637 108.075 27.6691C108.044 27.7013 108.021 27.7412 108.009 27.7849C107.997 27.8287 107.997 27.8749 108.008 27.919V29.8343C107.999 29.9293 108.026 30.024 108.084 30.0985C108.142 30.173 108.226 30.2214 108.319 30.2334H111.118V44.0396C111.106 44.158 111.12 44.2777 111.158 44.3899C111.197 44.5021 111.259 44.604 111.341 44.6882C111.423 44.7724 111.523 44.8366 111.632 44.8763C111.741 44.916 111.858 44.9301 111.973 44.9175H113.762C113.874 44.9282 113.986 44.9121 114.091 44.8705C114.195 44.8289 114.289 44.7629 114.364 44.6778C114.44 44.5926 114.495 44.4907 114.525 44.3799C114.556 44.2692 114.561 44.1527 114.54 44.0396V30.2334H120.76L129.159 44.5185C129.241 44.6746 129.365 44.803 129.517 44.8879C129.669 44.9729 129.842 45.0109 130.014 44.9973H132.58C133.047 44.9973 133.124 44.6781 132.813 44.1992ZM119.361 27.52C117.494 27.52 115.784 27.4402 114.462 27.4402V14.9108C114.462 14.2723 114.54 14.1127 115.239 14.0329C116.423 13.8544 117.62 13.7743 118.816 13.7935C124.337 13.7935 126.592 15.3896 126.592 20.0981V20.7366C126.515 25.5249 124.337 27.52 119.361 27.52Z"
    fill="white"></path>
  <path
    d="M154 28.9288C154 33.1641 153.265 36.0619 151.576 37.7709C150.033 39.257 147.829 40 144.963 40C142.171 40 139.967 39.257 138.425 37.7709C136.661 35.9876 136 33.1641 136 28.9288V27.0712C136 22.8359 136.735 19.9381 138.425 18.1548C139.967 16.6687 142.318 16 144.963 16C147.755 16 150.033 16.6687 151.576 18.1548C153.339 19.9381 154 22.8359 154 27.0712V28.9288ZM139.012 28.4087C138.98 30.1532 139.128 31.8964 139.453 33.6099C140.261 36.4334 142.098 37.3251 144.89 37.3251C147.682 37.3251 149.592 36.3591 150.4 33.6099C150.726 31.8964 150.873 30.1532 150.841 28.4087V27.517C150.873 25.7725 150.726 24.0293 150.4 22.3158C149.592 19.4923 147.755 18.6006 144.89 18.6006C142.024 18.6006 140.261 19.4923 139.453 22.3158C139.128 24.0293 138.98 25.7725 139.012 27.517V28.4087Z"
    fill="white"></path>
  <path
    d="M161.459 45.9172C161.37 45.9184 161.282 45.902 161.2 45.8691C161.118 45.8362 161.043 45.7875 160.98 45.7258C160.918 45.6641 160.868 45.5907 160.835 45.5099C160.801 45.4291 160.785 45.3425 160.786 45.2553V22.8302H157.505C157.168 22.8302 157 22.7474 157 22.2509V21.1752C157 20.6787 157.168 20.5132 157.505 20.5132L160.786 19.8512V18.6927C160.686 16.8646 161.063 15.0418 161.879 13.3967C163.562 10.666 166.843 10.004 169.03 10.004C170.477 9.97132 171.921 10.1385 173.321 10.5005C173.421 10.5097 173.518 10.5386 173.607 10.5856C173.695 10.6325 173.773 10.6965 173.836 10.7737C173.899 10.851 173.945 10.9398 173.972 11.035C173.999 11.1303 174.007 11.2299 173.994 11.328L173.741 12.8175C173.657 13.314 173.405 13.4795 172.816 13.314C171.764 13.1043 170.693 12.9935 169.619 12.983C168.283 12.9228 166.961 13.2695 165.833 13.976C164.656 14.8862 164.235 16.3757 164.235 18.7755V19.9339H169.956C170.024 19.9242 170.094 19.9304 170.16 19.9519C170.226 19.9734 170.285 20.0097 170.334 20.0579C170.383 20.1061 170.42 20.1649 170.442 20.2295C170.464 20.2942 170.47 20.363 170.46 20.4304V22.4164C170.47 22.4839 170.464 22.5527 170.442 22.6173C170.42 22.682 170.383 22.7407 170.334 22.7889C170.285 22.8371 170.226 22.8734 170.16 22.8949C170.094 22.9164 170.024 22.9226 169.956 22.9129H164.235V45.338C164.242 45.5017 164.185 45.6617 164.075 45.785C163.966 45.9083 163.812 45.9853 163.646 46H161.459V45.9172Z"
    fill="white"></path>
  <path
    d="M195 27.9613C195 29.2986 194.532 29.7444 193.13 29.7444H180.351C180.584 35.3907 182.221 37.3967 186.818 37.3967C188.685 37.4213 190.539 37.093 192.273 36.4309C192.896 36.208 193.286 36.2823 193.442 36.7281L193.753 37.8425C193.909 38.2882 193.987 38.6597 192.662 39.1055C190.759 39.732 188.754 40.0338 186.74 39.997C179.416 39.997 177 36.5795 177 28.9272V27.0698C177 19.6404 179.416 16 186.351 16C189.234 16 191.338 16.6687 192.74 17.9317C194.143 19.1946 194.922 21.1263 194.922 24.0981V27.9613H195ZM180.429 27.0698H191.104C191.571 27.0698 191.805 26.9955 191.805 26.3269V24.5438C191.805 22.2407 191.494 21.1263 190.636 20.1605C189.779 19.1946 188.455 18.6746 186.507 18.6746C182.299 18.6003 180.429 20.4577 180.429 27.0698Z"
    fill="white"></path>
  <path
    d="M208.601 26.1683C209.303 26.1683 209.303 25.7946 209.538 25.4208L214.066 16.5264C214.156 16.3638 214.291 16.2286 214.456 16.1361C214.622 16.0435 214.812 15.9975 215.003 16.0031H217.033C217.424 16.0031 217.736 16.2274 217.424 16.7506L211.88 27.2147C211.759 27.3501 211.693 27.5224 211.693 27.7005C211.693 27.8787 211.759 28.051 211.88 28.1864L217.892 39.4726C218.127 39.8464 217.97 39.9959 217.502 39.9959H214.847C214.714 40.0114 214.58 39.9828 214.466 39.9148C214.352 39.8468 214.266 39.7435 214.223 39.6221L209.382 29.756C209.315 29.5313 209.17 29.335 208.972 29.1992C208.773 29.0634 208.532 28.9962 208.288 29.0085H207.508C207.271 28.9866 207.034 29.0516 206.846 29.1904C206.657 29.3291 206.531 29.5313 206.493 29.756L201.73 39.6221C201.673 39.7342 201.584 39.8287 201.473 39.8947C201.363 39.9608 201.235 39.9959 201.105 39.9959H198.45C198.06 39.9959 197.904 39.7716 198.06 39.4726L203.994 28.1864C204.108 28.0479 204.17 27.8768 204.17 27.7005C204.17 27.5243 204.108 27.3531 203.994 27.2147L198.606 16.7506C198.294 16.2274 198.528 16.0031 198.997 16.0031H201.027C201.22 15.9877 201.414 16.0296 201.582 16.1232C201.749 16.2168 201.883 16.3576 201.964 16.5264L206.493 25.4208C206.805 25.9441 206.805 26.1683 207.351 26.1683H208.601Z"
    fill="white"></path>
</svg>
